<?xml version="1.0" encoding="UTF-8"?>
<svg id="Layer_1" xmlns="http://www.w3.org/2000/svg" version="1.1" viewBox="0 0 24 30">
  <!-- Generator: Adobe Illustrator 29.3.1, SVG Export Plug-In . SVG Version: 2.1.0 Build 151)  -->
  <path d="M12,2c-2.6,0-5.1,1-6.9,2.8v-.9c-.1-.6-.6-1-1.2-1h0c-.6,0-1,.5-1,1.1l.2,3.6s0,0,0,0c0,0,0,.1,0,.2,0,0,0,.1,0,.2,0,.1.2.2.3.3,0,0,0,0,0,0,0,0,0,0,0,0,0,0,0,0,0,0,.1,0,.2,0,.3,0h3.3c.6,0,1.1-.5,1.1-1.1s-.5-1-1.1-1h-1.2c3.1-3.1,8.1-3.2,11.2-.1,3.1,3.1,3.2,8.1.1,11.2-3.1,3.1-8.1,3.2-11.2.1-1.5-1.5-2.4-3.5-2.4-5.7,0-.6-.5-1.1-1-1.1s-1,.5-1,1.1c0,5.6,4.5,10.1,10,10.1s10.1-4.5,10.1-10.1S17.6,1.9,12,1.9h0Z"/>
  <path d="M12,6.9c-.6,0-1,.5-1.1,1.1v4c0,.3.1.5.3.7l3,3c.4.4,1.1.4,1.5,0,.4-.4.4-1.1,0-1.5l-2.7-2.7v-3.6c0-.6-.5-1-1.1-1.1Z"/>
</svg>