<?xml version="1.0" encoding="UTF-8"?>
<svg id="Layer_1" xmlns="http://www.w3.org/2000/svg" xmlns:xlink="http://www.w3.org/1999/xlink" version="1.1" viewBox="0 0 30 37.5">
  <!-- Generator: Adobe Illustrator 29.3.1, SVG Export Plug-In . SVG Version: 2.1.0 Build 151)  -->
  <path d="M23.7,18.6c1.4-1.3,2.3-3.1,2.3-5.2,0-3.9-3.1-7-7-7s-2.8.4-4,1.3c-1.1-.8-2.5-1.3-4-1.3-3.9,0-7,3.1-7,7s.9,3.9,2.3,5.2c-3.2,1.7-5.3,5.1-5.3,8.8v3c0,.6.4,1,1,1h26c.6,0,1-.4,1-1v-3c0-3.8-2.1-7.1-5.3-8.8ZM19,8.4c2.8,0,5,2.2,5,5s-1.2,3.8-2.9,4.5c0,0-.2,0-.2,0-.2,0-.5.2-.8.2,0,0-.1,0-.2,0-.3,0-.6,0-.9,0-.1,0-.3,0-.4,0,0,0-.1,0-.1,0-.5,0-1.1-.2-1.6-.5,0,0,0,0,0,0,0,0-.2,0-.3-.1,0,0,0,0,0,0,.5-.6.8-1.2,1.1-1.9,0,0,0,0,0,0,.1-.3.2-.7.3-1,0,0,0-.1,0-.2,0-.3,0-.7,0-1.1s0-.7,0-1.1c0,0,0-.1,0-.2,0-.4-.2-.7-.3-1,0,0,0,0,0,0-.3-.7-.6-1.4-1.1-2,0,0,0,0,0,0,.8-.4,1.6-.7,2.5-.7ZM27,29.4h-6v-2c0-.3,0-.6,0-.9,0,0,0-.2,0-.3,0-.2,0-.4,0-.7,0,0,0-.2,0-.3,0-.2-.1-.4-.2-.7,0,0,0-.1,0-.2-.3-.9-.7-1.8-1.2-2.5,0,0,0,0,0,0-.2-.3-.4-.5-.6-.7,0,0,0,0,0,0-.2-.2-.4-.5-.6-.7,0,0,0,0,0,0,.3,0,.6,0,.9,0s0,0,0,0c.3,0,.5,0,.8,0,0,0,.2,0,.2,0,.2,0,.4,0,.6-.1,0,0,.1,0,.2,0,.3,0,.5-.2.8-.3,3.2,1.1,5.3,4.1,5.3,7.5v2Z"/>
</svg>