<?xml version="1.0" encoding="UTF-8"?>
<svg id="Layer_1" xmlns="http://www.w3.org/2000/svg" xmlns:xlink="http://www.w3.org/1999/xlink" version="1.1" viewBox="0 0 30 37.5">
  <!-- Generator: Adobe Illustrator 29.3.1, SVG Export Plug-In . SVG Version: 2.1.0 Build 151)  -->
  <path d="M28,4.9H2c-.6,0-1,.4-1,1v26c0,.6.4,1,1,1h26c.6,0,1-.4,1-1V5.9c0-.6-.4-1-1-1ZM13.7,21.6l-5.3,5.3h1.6c.6,0,1,.4,1,1s-.4,1-1,1h-4c-.1,0-.3,0-.4,0-.2-.1-.4-.3-.5-.5,0-.1,0-.3,0-.4v-4c0-.6.4-1,1-1s1,.4,1,1v1.6l5.3-5.3c.4-.4,1-.4,1.4,0,.4.4.4,1,0,1.4ZM13.7,17.6c-.2.2-.5.3-.7.3s-.5,0-.7-.3l-5.3-5.3v1.6c0,.6-.4,1-1,1s-1-.4-1-1v-4c0-.1,0-.3,0-.4.1-.2.3-.4.5-.5.1,0,.3,0,.4,0h4c.6,0,1,.4,1,1s-.4,1-1,1h-1.6l5.3,5.3c.4.4.4,1,0,1.4ZM25,27.9c0,.1,0,.3,0,.4-.1.2-.3.4-.5.5-.1,0-.3,0-.4,0h-4c-.6,0-1-.4-1-1s.4-1,1-1h1.6l-5.3-5.3c-.4-.4-.4-1,0-1.4.4-.4,1-.4,1.4,0l5.3,5.3v-1.6c0-.6.4-1,1-1s1,.4,1,1v4ZM25,13.9c0,.6-.4,1-1,1s-1-.4-1-1v-1.6l-5.3,5.3c-.2.2-.5.3-.7.3s-.5,0-.7-.3c-.4-.4-.4-1,0-1.4l5.3-5.3h-1.6c-.6,0-1-.4-1-1s.4-1,1-1h4c.1,0,.3,0,.4,0,.2.1.4.3.5.5,0,.1,0,.3,0,.4v4Z"/>
</svg>