<?xml version="1.0" encoding="UTF-8"?>
<svg id="Layer_1" xmlns="http://www.w3.org/2000/svg" xmlns:xlink="http://www.w3.org/1999/xlink" version="1.1" viewBox="0 0 366.7 450">
  <!-- Generator: Adobe Illustrator 29.3.1, SVG Export Plug-In . SVG Version: 2.1.0 Build 151)  -->
  <defs>
    <style>
      .st0 {
        stroke: #000;
        stroke-miterlimit: 10;
        stroke-width: 5px;
      }
    </style>
  </defs>
  <path class="st0" d="M229.5,320.9c-5.3,11.9-11.5,21.7-18.2,28.8-8.4,8.8-17.8,13.6-27.9,13.6-20,0-37.5-19.3-49.5-50.5-2.1-5.4-4-11.1-5.7-17.1-11,2.7-21.3,4.4-30.7,5.1-26.6,2-46.8-4.1-55.5-19.2h0c-8.7-15.1-3.9-35.6,11.1-57.7,5.3-7.8,12-15.9,19.8-24-4.4-4.6-8.4-9.1-12-13.6-20.8-25.7-28.8-50.2-19.3-67.5.2-.5.5-.9.8-1.3,5.1-8.4,13.9-13.9,25.3-16.7,9.5-2.3,21.1-2.8,34.1-1.4,1.7-3.9,4.2-7.5,7.2-10.5,6.3-6.3,15-10.2,24.5-10.2s2.5,0,3.7.2c5.3-11.9,11.5-21.7,18.2-28.8,8.4-8.8,17.8-13.6,27.9-13.6,20,0,37.5,19.3,49.5,50.5,2.1,5.3,4,11.1,5.7,17.1,11-2.7,21.3-4.4,30.7-5.2,26.6-2,46.8,4.1,55.5,19.2h0c8.7,15.1,3.9,35.6-11.1,57.7-5.3,7.8-12,15.9-19.8,24,4.4,4.6,8.4,9.1,12,13.6,20.8,25.7,28.8,50.2,19.3,67.5-.2.5-.5.9-.8,1.3-5.1,8.4-13.9,13.9-25.3,16.7-9.5,2.3-21.1,2.8-34.1,1.4-1.7,3.9-4.2,7.5-7.2,10.5-6.3,6.3-15,10.2-24.5,10.2s-2.5,0-3.7-.2h0ZM183.3,165.3c9.6,0,18.3,3.9,24.6,10.2,6.3,6.3,10.2,15,10.2,24.6s-3.9,18.3-10.2,24.6c-6.3,6.3-15,10.2-24.6,10.2s-18.3-3.9-24.6-10.2c-6.3-6.3-10.2-15-10.2-24.6s3.9-18.3,10.2-24.6c6.3-6.3,15-10.2,24.6-10.2ZM197,186.3c-3.5-3.5-8.4-5.7-13.7-5.7s-10.2,2.2-13.7,5.7-5.7,8.4-5.7,13.7,2.2,10.2,5.7,13.7,8.4,5.7,13.7,5.7,10.2-2.2,13.7-5.7,5.7-8.4,5.7-13.7-2.2-10.2-5.7-13.7ZM267.9,285.4c10.7,1,20,.7,27.5-1.2,7.5-1.8,13-5.1,15.9-9.8l.2-.4c6.5-11.3-.7-29.9-17.6-50.9-3.3-4.1-7-8.2-11-12.4-9.9,9.2-21.3,18.4-33.8,27.3-.5,5.6-1.2,11.2-2,16.6,4,1.8,7.5,4.2,10.6,7.2,6.1,6.1,9.9,14.4,10.1,23.5h0ZM232.2,251.7c.8-5.9,1.5-12.1,2-18.4,0-.1,0-.2,0-.3,0-1,.2-2,.2-2.9.7-9.6,1.1-19.7,1.1-30s-.4-20-1.1-29.6c-7.9-5.4-16.3-10.7-25-15.7h0c-9-5.2-17.9-9.9-26.5-14-.9-.4-1.9-.9-2.8-1.3h-.1c-5.7-2.7-11.4-5.2-17-7.5-1.4,2.3-3.1,4.4-5,6.3-6.1,6.1-14.3,9.9-23.5,10.2-.8,5.9-1.5,12-2,18.4,0,.1,0,.2,0,.4,0,1-.2,2-.2,2.9-.7,9.6-1.1,19.7-1.1,30s.4,20,1.1,29.6c7.9,5.4,16.3,10.7,25,15.7h0c9,5.2,17.9,9.9,26.5,14,.9.4,1.9.9,2.8,1.3h0c5.7,2.7,11.4,5.2,17,7.5,1.4-2.3,3.1-4.4,5-6.3,6.1-6.1,14.4-9.9,23.5-10.1h0ZM198.7,282.6c-5-2-10.1-4.2-15.4-6.6-13.9,6.4-27.6,11.6-40.5,15.6,1.6,5.6,3.4,10.9,5.3,15.8,9.7,25.1,22.2,40.7,35.3,40.7s11.4-3.1,16.9-8.9c5.4-5.6,10.3-13.5,14.8-23.2-2.3-1.4-4.4-3.1-6.3-5-6.3-6.3-10.2-15-10.2-24.6s0-2.5.2-3.8h0ZM246.9,272.7c-3.5-3.5-8.4-5.7-13.7-5.7s-10.2,2.2-13.7,5.7-5.7,8.4-5.7,13.7,2.2,10.2,5.7,13.7c3.5,3.5,8.4,5.7,13.7,5.7s10.2-2.2,13.7-5.7c3.5-3.5,5.7-8.4,5.7-13.7s-2.2-10.2-5.7-13.7h0ZM98.7,114.6c-10.7-1-20-.7-27.5,1.2-7.5,1.8-13,5.1-15.9,9.8l-.2.3c-6.5,11.3.7,29.9,17.6,50.9,3.3,4.1,7,8.2,11,12.4,9.9-9.2,21.3-18.4,33.8-27.3.5-5.6,1.2-11.2,2-16.6-4-1.8-7.5-4.2-10.6-7.2-6.1-6.1-9.9-14.3-10.2-23.5h0ZM151.7,84.1c2.3,1.4,4.4,3.1,6.3,5,6.3,6.3,10.2,15,10.2,24.5s0,2.5-.2,3.8c5,2,10.1,4.2,15.4,6.6,13.9-6.4,27.6-11.6,40.5-15.6-1.6-5.6-3.4-10.8-5.3-15.8-9.7-25.1-22.2-40.7-35.3-40.7s-11.4,3.1-16.9,8.9c-5.4,5.6-10.3,13.5-14.8,23.2h0ZM147.2,99.9c-3.5-3.5-8.4-5.7-13.7-5.7s-10.2,2.2-13.7,5.7-5.7,8.4-5.7,13.7,2.2,10.2,5.7,13.7,8.4,5.7,13.7,5.7,10.2-2.2,13.7-5.7c3.5-3.5,5.7-8.4,5.7-13.7s-2.2-10.2-5.7-13.7ZM134.1,249.2c1.3,9.7,2.9,18.9,4.8,27.6,8.5-2.6,17.3-5.9,26.4-9.6-5.3-2.8-10.6-5.6-15.8-8.7h0c-5.3-3-10.4-6.2-15.4-9.3h0ZM117.5,238c-12.5-8.9-23.8-18.1-33.8-27.3-7.2,7.5-13.2,14.8-18.1,21.9-11.7,17.1-16,31.9-10.5,41.4h0s0,0,0,0c5.5,9.5,20.5,13.1,41.1,11.5,8.6-.6,18-2.2,28-4.7-3-13.2-5.3-27.6-6.8-42.9h0ZM94.7,200c6.5,6,13.7,12.1,21.5,18-.3-5.9-.4-11.9-.4-18s.1-12.1.4-18c-7.8,5.9-14.9,12-21.5,18h0ZM201.3,132.8c5.3,2.8,10.6,5.6,15.8,8.7h0c5.3,3.1,10.4,6.2,15.4,9.3-1.3-9.7-2.9-18.9-4.9-27.6-8.5,2.7-17.3,5.8-26.4,9.6h0ZM249.1,162c12.5,8.9,23.8,18.1,33.8,27.3,7.2-7.5,13.2-14.8,18.1-21.9,11.7-17.1,16-31.9,10.5-41.4h0s0,0,0,0c-5.5-9.5-20.5-13.1-41.1-11.5-8.6.7-18,2.2-28,4.7,3,13.2,5.3,27.7,6.8,42.9h0ZM272,200c-6.5-6-13.7-12.1-21.5-18,.3,5.9.4,11.9.4,18s-.1,12.1-.4,18c7.8-5.9,14.9-12,21.5-18h0Z"/>
</svg>