<?xml version="1.0" encoding="UTF-8"?>
<svg id="Layer_1" xmlns="http://www.w3.org/2000/svg" xmlns:svg="http://www.w3.org/2000/svg" xmlns:sodipodi="http://sodipodi.sourceforge.net/DTD/sodipodi-0.dtd" xmlns:rdf="http://www.w3.org/1999/02/22-rdf-syntax-ns#" xmlns:inkscape="http://www.inkscape.org/namespaces/inkscape" xmlns:dc="http://purl.org/dc/elements/1.1/" xmlns:cc="http://creativecommons.org/ns#" version="1.1" viewBox="0 0 100 125">
  <!-- Generator: Adobe Illustrator 29.3.1, SVG Export Plug-In . SVG Version: 2.1.0 Build 151)  -->
  <path d="M16,29.9c-2.2,0-4,1.8-4,4s1.8,4,4,4h70.8c2.2,0,4-1.8,4-4s-1.8-4-4-4c0,0-70.8,0-70.8,0ZM16,50.4c-2.2,0-4,1.8-4,4s1.8,4,4,4h70.8c2.2,0,4-1.8,4-4s-1.8-4-4-4c0,0-70.8,0-70.8,0ZM16,70.9c-2.2,0-4,1.8-4,4s1.8,4,4,4h70.8c2.2,0,4-1.8,4-4s-1.8-4-4-4c0,0-70.8,0-70.8,0Z"/>
</svg>