<?xml version="1.0" encoding="UTF-8"?>
<svg id="Layer_1" xmlns="http://www.w3.org/2000/svg" xmlns:svg="http://www.w3.org/2000/svg" xmlns:sodipodi="http://sodipodi.sourceforge.net/DTD/sodipodi-0.dtd" xmlns:rdf="http://www.w3.org/1999/02/22-rdf-syntax-ns#" xmlns:inkscape="http://www.inkscape.org/namespaces/inkscape" xmlns:dc="http://purl.org/dc/elements/1.1/" xmlns:cc="http://creativecommons.org/ns#" version="1.1" viewBox="0 0 100 125">
  <!-- Generator: Adobe Illustrator 29.3.1, SVG Export Plug-In . SVG Version: 2.1.0 Build 151)  -->
  <path d="M26.1,5c-1.4,0-2.6.9-3.2,2.1l-6.6,13.2-5.1-4.4c-1.6-1.3-4-1.2-5.3.4s-1.2,4,.4,5.3h0l8.8,7.5c1.6,1.3,3.9,1.1,5.3-.4.2-.2.4-.5.5-.8l8.8-17.5c1-1.8.2-4.1-1.6-5.1-.6-.3-1.2-.4-1.9-.4Z"/>
  <path d="M50,10h30c5.5,0,10,3.4,10,7.5h0c0,4.1-4.5,7.5-10,7.5h-30c-5.5,0-10-3.4-10-7.5h0c0-4.1,4.5-7.5,10-7.5Z"/>
  <path d="M25,50c0,4.1-3.4,7.5-7.5,7.5s-7.5-3.4-7.5-7.5,3.4-7.5,7.5-7.5,7.5,3.4,7.5,7.5Z"/>
  <path d="M50,42.5h30c5.5,0,10,3.4,10,7.5h0c0,4.1-4.5,7.5-10,7.5h-30c-5.5,0-10-3.4-10-7.5h0c0-4.1,4.5-7.5,10-7.5Z"/>
  <path d="M25,82.5c0,4.1-3.4,7.5-7.5,7.5s-7.5-3.4-7.5-7.5,3.4-7.5,7.5-7.5,7.5,3.4,7.5,7.5Z"/>
  <path d="M50,75h30c5.5,0,10,3.4,10,7.5h0c0,4.1-4.5,7.5-10,7.5h-30c-5.5,0-10-3.4-10-7.5h0c0-4.1,4.5-7.5,10-7.5Z"/>
</svg>