<?xml version="1.0" encoding="UTF-8"?>
<svg id="Layer_1" xmlns="http://www.w3.org/2000/svg" version="1.1" viewBox="0 0 110 135">
  <!-- Generator: Adobe Illustrator 29.3.1, SVG Export Plug-In . SVG Version: 2.1.0 Build 151)  -->
  <path d="M83,53.4h0c0,0-21.5,47.9-21.5,47.9-.7,1.5-2.2,2.3-3.8,1.9-1.6-.3-2.7-1.7-2.7-3.3v-25.2c0-1.9-1.5-3.4-3.4-3.4h-21.5c-.5,0-1-.1-1.4-.3-1.7-.8-2.5-2.8-1.8-4.5l5.8-13,15.7-34.6c.6-1.2,1.8-2,3.2-2,1.9,0,3.4,1.5,3.4,3.4v25.1c0,.9.3,1.8,1,2.4.6.6,1.5,1,2.4,1h21.5c.5,0,1,0,1.4.3.8.3,1.5,1,1.8,1.9.3.8.3,1.8-.1,2.6h0Z"/>
</svg>