<?xml version="1.0" encoding="UTF-8"?>
<svg id="Layer_1" xmlns="http://www.w3.org/2000/svg" xmlns:xlink="http://www.w3.org/1999/xlink" xmlns:serif="http://www.serif.com/" version="1.1" viewBox="0 0 24 30">
  <!-- Generator: Adobe Illustrator 29.3.1, SVG Export Plug-In . SVG Version: 2.1.0 Build 151)  -->
  <defs>
    <style>
      .st0 {
        fill-rule: evenodd;
      }
    </style>
  </defs>
  <circle cx="12" cy="12" r="5.8"/>
  <circle cx="19.2" cy="4.7" r="2.8"/>
  <path class="st0" d="M18.3,2.7c-1.8-1.2-4-1.9-6.3-1.9C5.8.7.8,5.8.8,12s5,11.2,11.2,11.2,11.2-5,11.2-11.2-.7-4.5-1.9-6.3c-.1-.2-.3-.3-.6-.3-.2,0-.4,0-.6.2-.2.2-.5.4-.9.4-.7,0-1.2-.6-1.2-1.2s.1-.7.4-.9c.2-.2.2-.4.2-.6,0-.2-.1-.4-.3-.6ZM16.8,3.5c-.2.4-.3.8-.3,1.2,0,1.5,1.2,2.8,2.8,2.8s.9-.1,1.2-.3c.8,1.4,1.3,3.1,1.3,4.8,0,5.4-4.4,9.8-9.8,9.8S2.2,17.4,2.2,12,6.6,2.2,12,2.2s3.4.5,4.8,1.3Z"/>
</svg>