<?xml version="1.0" encoding="UTF-8"?>
<svg id="Layer_1" xmlns="http://www.w3.org/2000/svg" xmlns:xlink="http://www.w3.org/1999/xlink" version="1.1" viewBox="0 0 100 125">
  <!-- Generator: Adobe Illustrator 29.3.1, SVG Export Plug-In . SVG Version: 2.1.0 Build 151)  -->
  <rect x="25" y="51.4" width="50.1" height="2" transform="translate(-2.4 102.5) rotate(-90)"/>
  <path d="M56.9,33.7c0,.3-.1.6-.4.8-.4.3-1.1.2-1.4-.2l-4.6-6.4c-.1-.2-.3-.3-.4-.3-.1,0-.3,0-.4.3l-4.7,6.4c-.3.4-1,.5-1.4.2-.4-.3-.5-.9-.2-1.4l4.7-6.4c.5-.7,1.2-1.1,2-1.1.8,0,1.5.4,2,1.1l4.6,6.4c.1.2.2.4.2.6Z"/>
</svg>