<?xml version="1.0" encoding="UTF-8"?>
<svg id="Layer_1" xmlns="http://www.w3.org/2000/svg" xmlns:xlink="http://www.w3.org/1999/xlink" version="1.1" viewBox="0 0 30 37.5">
  <!-- Generator: Adobe Illustrator 29.3.1, SVG Export Plug-In . SVG Version: 2.1.0 Build 151)  -->
  <polygon points="10.9 23.1 15.4 20.8 13.2 18.5 10.9 23.1"/>
  <polygon points="16.8 19.4 19.1 14.8 14.6 17.1 16.8 19.4"/>
  <path d="M15,4.9C7.3,4.9,1,11.2,1,18.9s6.3,14,14,14,14-6.3,14-14-6.3-14-14-14ZM22.3,13l-4.2,8.5c0,.2-.3.4-.4.4l-8.5,4.2c-.1,0-.3.1-.4.1-.3,0-.5-.1-.7-.3-.3-.3-.4-.8-.2-1.2l4.2-8.5c0-.2.3-.4.4-.4l8.5-4.2c.4-.2.9-.1,1.2.2.3.3.4.8.2,1.2Z"/>
</svg>