<?xml version="1.0" encoding="UTF-8"?>
<svg id="Layer_1" xmlns="http://www.w3.org/2000/svg" xmlns:xlink="http://www.w3.org/1999/xlink" version="1.1" viewBox="0 0 30 37.5">
  <!-- Generator: Adobe Illustrator 29.3.1, SVG Export Plug-In . SVG Version: 2.1.0 Build 151)  -->
  <path d="M28,24.9h-2v-4c0-.6-.4-1-1-1h-9v-7h5c.6,0,1-.4,1-1v-6c0-.6-.4-1-1-1h-12c-.6,0-1,.4-1,1v6c0,.6.4,1,1,1h5v7H5c-.6,0-1,.4-1,1v4h-2c-.6,0-1,.4-1,1v6c0,.6.4,1,1,1h6c.6,0,1-.4,1-1v-6c0-.6-.4-1-1-1h-2v-3h8v3h-2c-.6,0-1,.4-1,1v6c0,.6.4,1,1,1h6c.6,0,1-.4,1-1v-6c0-.6-.4-1-1-1h-2v-3h8v3h-2c-.6,0-1,.4-1,1v6c0,.6.4,1,1,1h6c.6,0,1-.4,1-1v-6c0-.6-.4-1-1-1Z"/>
</svg>