<?xml version="1.0" encoding="UTF-8"?>
<svg id="Layer_1" xmlns="http://www.w3.org/2000/svg" version="1.1" viewBox="0 0 110 135">
  <!-- Generator: Adobe Illustrator 29.3.1, SVG Export Plug-In . SVG Version: 2.1.0 Build 151)  -->
  <defs>
    <style>
      .st0 {
        fill-rule: evenodd;
      }
    </style>
  </defs>
  <path class="st0" d="M40.4,90c-4.8,0-8.8-3.9-8.8-8.8v-41.1c0-4.8,3.9-8.8,8.8-8.8h17.1c2.1,0,3.8-1.7,3.8-3.8s-1.7-3.8-3.8-3.8h-17.1c-9,0-16.2,7.3-16.2,16.2v41.1c0,9,7.3,16.2,16.2,16.2h17.1c2.1,0,3.8-1.7,3.8-3.8s-1.7-3.8-3.8-3.8h-17.1ZM68.1,77.1c1.5,1.5,3.8,1.5,5.3,0l13.8-13.8c.7-.7,1.1-1.7,1.1-2.7s-.4-1.9-1.1-2.7l-13.8-13.8c-1.5-1.5-3.8-1.5-5.3,0-1.5,1.5-1.5,3.8,0,5.3l7.4,7.4h-26.9c-2.1,0-3.8,1.7-3.8,3.8s1.7,3.8,3.8,3.8h26.9l-7.4,7.4c-1.5,1.5-1.5,3.8,0,5.3h0Z"/>
</svg>