<?xml version="1.0" encoding="UTF-8"?>
<svg id="Layer_1" xmlns="http://www.w3.org/2000/svg" version="1.1" viewBox="0 0 110 135">
  <!-- Generator: Adobe Illustrator 29.3.1, SVG Export Plug-In . SVG Version: 2.1.0 Build 151)  -->
  <defs>
    <style>
      .st0 {
        stroke: #000;
        stroke-miterlimit: 10;
      }
    </style>
  </defs>
  <path class="st0" d="M57.6,106.4c-4.6,0-9-1.6-12.5-4.6-3.5-3-5.8-7.1-6.6-11.6h-10.6c-3.2,0-6.2-1.8-7.6-4.7-1.4-2.9-1-6.3.9-8.9,3.1-4,4.8-8.9,4.8-13.9v-17.4c0-11.3,6-21.7,15.8-27.4,9.8-5.6,21.8-5.6,31.6,0,9.8,5.6,15.8,16.1,15.8,27.4v17.4h0c0,5,1.7,9.9,4.8,13.9,2,2.5,2.4,6,.9,8.9-1.4,2.9-4.4,4.7-7.6,4.7h-10.6c-.8,4.5-3.1,8.6-6.6,11.6-3.5,3-7.9,4.6-12.5,4.6h0ZM44.9,90.1h0c1.4,5.9,6.7,10,12.7,10s11.3-4.1,12.7-10h-25.5ZM73.8,83.9h13.5c.8,0,1.6-.5,2-1.2.4-.7.3-1.6-.2-2.3-4-5.1-6.1-11.3-6.1-17.8v-17.4c0-9.1-4.8-17.4-12.7-21.9-7.8-4.5-17.5-4.5-25.3,0s-12.7,12.9-12.7,21.9v17.4h0c0,6.4-2.2,12.7-6.1,17.8-.5.7-.6,1.5-.2,2.3.4.7,1.1,1.2,2,1.2h46Z"/>
</svg>