<?xml version="1.0" encoding="UTF-8"?>
<svg id="Layer_1" xmlns="http://www.w3.org/2000/svg" xmlns:xlink="http://www.w3.org/1999/xlink" version="1.1" viewBox="0 0 30 37.5">
  <!-- Generator: Adobe Illustrator 29.3.1, SVG Export Plug-In . SVG Version: 2.1.0 Build 151)  -->
  <path d="M28,17.9H11.9c-.4-1.7-2-3-3.9-3s-3.4,1.3-3.9,3h-2.1c-.6,0-1,.4-1,1s.4,1,1,1h2.1c.4,1.7,2,3,3.9,3s3.4-1.3,3.9-3h16.1c.6,0,1-.4,1-1s-.4-1-1-1Z"/>
  <path d="M28,7.9h-3.1c-.4-1.7-2-3-3.9-3s-3.4,1.3-3.9,3H2c-.6,0-1,.4-1,1s.4,1,1,1h15.1c.4,1.7,2,3,3.9,3s3.4-1.3,3.9-3h3.1c.6,0,1-.4,1-1s-.4-1-1-1Z"/>
  <path d="M28,27.9h-5.1c-.4-1.7-2-3-3.9-3s-3.4,1.3-3.9,3H2c-.6,0-1,.4-1,1s.4,1,1,1h13.1c.4,1.7,2,3,3.9,3s3.4-1.3,3.9-3h5.1c.6,0,1-.4,1-1s-.4-1-1-1Z"/>
</svg>