<?xml version="1.0" encoding="UTF-8"?>
<svg id="Layer_1" xmlns="http://www.w3.org/2000/svg" version="1.1" viewBox="0 0 110 135">
  <!-- Generator: Adobe Illustrator 29.3.1, SVG Export Plug-In . SVG Version: 2.1.0 Build 151)  -->
  <path d="M33.1,39l19.8-21.4c0,0,.1-.1.2-.2,1.2-1.1,3-1,4,.2l19.6,21.2c.6.5,1,1.3,1,2.1,0,1.6-1.3,2.9-2.9,2.9h-9v12.9c0,1.6-1.3,2.9-2.9,2.9h-15.9c-1.6,0-2.9-1.3-2.9-2.9v-12.9h-9c-.7,0-1.4-.3-1.9-.8-1.2-1.1-1.2-2.9-.2-4h0Z"/>
  <path d="M76.9,96.8l-19.8,21.4c0,0-.1.1-.2.2-1.2,1.1-3,1-4-.2l-19.6-21.2c-.6-.5-1-1.3-1-2.1,0-1.6,1.3-2.9,2.9-2.9h9v-12.9c0-1.6,1.3-2.9,2.9-2.9h15.9c1.6,0,2.9,1.3,2.9,2.9v12.9h9c.7,0,1.4.3,1.9.8,1.2,1.1,1.2,2.9.2,4h0Z"/>
</svg>