<?xml version="1.0" encoding="UTF-8"?>
<svg id="Layer_1" xmlns="http://www.w3.org/2000/svg" xmlns:xlink="http://www.w3.org/1999/xlink" version="1.1" viewBox="0 0 64 80">
  <!-- Generator: Adobe Illustrator 29.3.1, SVG Export Plug-In . SVG Version: 2.1.0 Build 151)  -->
  <path d="M59.1,58.3c1.2-1.1,1.9-2.6,1.9-4.4,0-3.3-2.7-6-6-6s-6,2.7-6,6,.7,3.3,1.9,4.4c-1.8,1.3-2.9,3.4-2.9,5.6v5c0,.6.4,1,1,1h12c.6,0,1-.4,1-1v-5c0-2.3-1.1-4.3-2.9-5.6ZM55,49.9c2.2,0,4,1.8,4,4s-.9,2.9-2.2,3.5c0,0,0,0,0,0-1.2.6-2.4.6-3.6,0,0,0,0,0,0,0-1.3-.7-2.2-2-2.2-3.5,0-2.2,1.8-4,4-4ZM60,67.9h-10v-4c0-1.9,1.1-3.6,2.7-4.5.7.3,1.5.5,2.3.5s1.6-.2,2.3-.5c1.7.9,2.7,2.6,2.7,4.5v4Z"/>
  <path d="M25,63.9v5c0,.6.4,1,1,1h12c.6,0,1-.4,1-1v-5c0-2.3-1.1-4.3-2.9-5.6,1.2-1.1,1.9-2.6,1.9-4.4,0-3.3-2.7-6-6-6s-6,2.7-6,6,.7,3.3,1.9,4.4c-1.8,1.3-2.9,3.4-2.9,5.6ZM32,49.9c2.2,0,4,1.8,4,4s-.9,2.9-2.2,3.5c0,0,0,0,0,0-1.2.6-2.4.6-3.6,0,0,0,0,0,0,0-1.3-.7-2.2-2-2.2-3.5,0-2.2,1.8-4,4-4ZM27,63.9c0-1.9,1.1-3.6,2.7-4.5.7.3,1.5.5,2.3.5s1.6-.2,2.3-.5c1.7.9,2.7,2.6,2.7,4.5v4h-10v-4Z"/>
  <path d="M3,69.9h12c.6,0,1-.4,1-1v-5c0-2.3-1.1-4.3-2.9-5.6,1.2-1.1,1.9-2.6,1.9-4.4,0-3.3-2.7-6-6-6s-6,2.7-6,6,.7,3.3,1.9,4.4c-1.8,1.3-2.9,3.4-2.9,5.6v5c0,.6.4,1,1,1ZM9,49.9c2.2,0,4,1.8,4,4s-.9,2.9-2.2,3.5c0,0,0,0,0,0-1.2.6-2.4.6-3.6,0,0,0,0,0,0,0-1.3-.7-2.2-2-2.2-3.5,0-2.2,1.8-4,4-4ZM4,63.9c0-1.9,1.1-3.6,2.7-4.5.7.3,1.5.5,2.3.5s1.6-.2,2.3-.5c1.7.9,2.7,2.6,2.7,4.5v4H4v-4Z"/>
  <path d="M22,31.9v5c0,.6.4,1,1,1h18c.6,0,1-.4,1-1v-5c0-3.3-1.7-6.4-4.4-8.3,1.5-1.5,2.4-3.5,2.4-5.7,0-4.4-3.6-8-8-8s-8,3.6-8,8,.9,4.3,2.4,5.7c-2.7,1.8-4.4,4.9-4.4,8.3ZM26,17.9c0-3.3,2.7-6,6-6s6,2.7,6,6-1.1,4-2.8,5c-.2.1-.5.3-.7.4,0,0,0,0,0,0-1.6.7-3.4.7-5,0,0,0,0,0,0,0-.2-.1-.5-.2-.7-.4-1.7-1.1-2.8-2.9-2.8-5ZM29,25.4s0,0,0,0c.9.4,1.9.6,2.9.6s2-.2,2.9-.6c0,0,0,0,0,0,.3-.1.6-.3.9-.4,0,0,0,0,0,0,2.5,1.4,4.1,4.1,4.1,7v4h-16v-4c0-2.9,1.6-5.6,4.1-7,0,0,0,0,0,0,.3.2.6.3.9.4Z"/>
  <path d="M8,42.9v3h2v-2h21v2h2v-2h21v2h2v-3c0-.6-.4-1-1-1h-22v-2h-2v2H9c-.6,0-1,.4-1,1Z"/>
  <polygon points="31 33.9 33 33.9 33 29.9 35 29.9 35 27.9 29 27.9 29 29.9 31 29.9 31 33.9"/>
</svg>