<?xml version="1.0" encoding="UTF-8"?>
<svg id="Layer_1" xmlns="http://www.w3.org/2000/svg" xmlns:xlink="http://www.w3.org/1999/xlink" version="1.1" viewBox="0 0 100 80.8">
  <!-- Generator: Adobe Illustrator 29.3.1, SVG Export Plug-In . SVG Version: 2.1.0 Build 151)  -->
  <defs>
    <style>
      .st0 {
        fill: #151719;
      }
    </style>
  </defs>
  <path class="st0" d="M63.7,34.7H26.3s8.7-8.7,8.7-8.7c1.6-1.6,1.6-4.2,0-5.8-1.6-1.6-4.2-1.6-5.8,0l-15.7,15.7c-.2.2-.4.4-.5.6,0,0-.1.2-.2.3,0,.1-.2.3-.2.4,0,.1,0,.2-.1.4,0,.1,0,.3-.1.4,0,.2,0,.4,0,.6,0,0,0,.1,0,.2,0,0,0,.1,0,.2,0,.2,0,.4,0,.6,0,.1,0,.3.1.4,0,.1,0,.2.1.3,0,.2.2.3.2.5,0,0,0,.2.1.3.2.2.3.4.5.6l16,16c.8.8,1.9,1.2,2.9,1.2s2.1-.4,2.9-1.2c1.6-1.6,1.6-4.2,0-5.8l-9-9h37.4c9.1,0,16.6,7.4,16.6,16.6s1.8,4.1,4.1,4.1,4.1-1.8,4.1-4.1c0-13.7-11.1-24.8-24.8-24.8Z"/>
</svg>