<?xml version="1.0" encoding="UTF-8"?>
<svg id="Layer_1" xmlns="http://www.w3.org/2000/svg" version="1.1" viewBox="0 0 32 40">
  <!-- Generator: Adobe Illustrator 29.3.1, SVG Export Plug-In . SVG Version: 2.1.0 Build 151)  -->
  <path d="M27.5,21c0-1.7-.7-3.4-1.9-4.6h0c-1.2-1.2-2.9-1.9-4.6-1.9h-3.5s0-3.4,0-3.4c0-3.6-2.9-6.5-6.4-6.5,0,0,0,0,0,0-3.6,0-6.5,2.9-6.5,6.5,0,1.7.7,3.4,1.9,4.6h0c1.2,1.2,2.9,1.9,4.6,1.9h3.5s0,3.4,0,3.4c0,3.6,2.9,6.5,6.4,6.5,0,0,0,0,0,0,3.6,0,6.5-2.9,6.5-6.5ZM11,14.5c-.9,0-1.8-.3-2.4-1h0c-.7-.6-1-1.5-1-2.4,0-1.9,1.6-3.5,3.5-3.5,0,0,0,0,0,0,1.9,0,3.5,1.5,3.5,3.4,0,0,0,0,0,0v3.5s-3.5,0-3.5,0ZM20.9,24.5h0c-1.9,0-3.4-1.6-3.5-3.5v-3.5s3.5,0,3.5,0c.9,0,1.8.4,2.4,1h0c.7.6,1,1.5,1,2.4,0,1.9-1.6,3.5-3.5,3.5Z"/>
</svg>