<?xml version="1.0" encoding="UTF-8"?>
<svg id="Layer_1" xmlns="http://www.w3.org/2000/svg" version="1.1" viewBox="0 0 110 135">
  <!-- Generator: Adobe Illustrator 29.3.1, SVG Export Plug-In . SVG Version: 2.1.0 Build 151)  -->
  <path d="M95.3,69.4c-.2.4-.4.7-.7,1l-8.3,8.3h0c-1.2,1.2-3.2,1.2-4.4,0-1.2-1.2-1.2-3.2,0-4.4l3-3h-21.6c-1.7,0-3.1-1.4-3.1-3.1s1.4-3.1,3.1-3.1h21.6l-3-3c-1.1-1.2-1.1-3.1,0-4.3s3.1-1.2,4.3,0l8.3,8.3h0c.3.3.5.6.7,1,.3.8.3,1.6,0,2.4h0ZM80,86c-1.7,0-3.1,1.4-3.1,3.1v8.3c0,.3-.1.5-.3.7-.2.2-.5.3-.7.3h-21.9v-60.6h21.9c.3,0,.5.1.7.3.2.2.3.5.3.7v8.3c0,1.7,1.4,3.1,3.1,3.1s3.1-1.4,3.1-3.1v-8.3c0-4-3.3-7.3-7.3-7.3h-23.3c-.4-.5-.9-1-1.4-1.5-1.8-1.4-4.1-1.9-6.2-1.3l-25,6.2c-3.3.8-5.5,3.7-5.5,7.1v51.8c0,3.4,2.3,6.3,5.5,7.1l25,6.2c.6,0,1.2,0,1.8,0,1.6,0,3.2-.5,4.5-1.5.5-.4,1-.9,1.4-1.5h23.3c3.9,0,7.2-3.1,7.3-7.1v-8.3c0-1.7-1.4-3.1-3.1-3.1v.2Z"/>
</svg>