<?xml version="1.0" encoding="UTF-8"?>
<svg id="Layer_1" xmlns="http://www.w3.org/2000/svg" xmlns:svg="http://www.w3.org/2000/svg" xmlns:sodipodi="http://sodipodi.sourceforge.net/DTD/sodipodi-0.dtd" xmlns:rdf="http://www.w3.org/1999/02/22-rdf-syntax-ns#" xmlns:inkscape="http://www.inkscape.org/namespaces/inkscape" xmlns:dc="http://purl.org/dc/elements/1.1/" xmlns:cc="http://creativecommons.org/ns#" version="1.1" viewBox="0 0 100 125">
  <!-- Generator: Adobe Illustrator 29.3.1, SVG Export Plug-In . SVG Version: 2.1.0 Build 151)  -->
  <path d="M15,19c-2.8,0-5,2.2-5,5s2.2,5,5,5h70c2.8,0,5-2.2,5-5s-2.2-5-5-5H15ZM15,39.3c-2.8,0-5,2.2-5,5s2.2,5,5,5h70c2.8,0,5-2.2,5-5s-2.2-5-5-5H15ZM15,59.7c-2.8,0-5,2.2-5,5s2.2,5,5,5h70c2.8,0,5-2.2,5-5s-2.2-5-5-5H15Z"/>
</svg>