<?xml version="1.0" encoding="UTF-8"?>
<svg id="Layer_1" xmlns="http://www.w3.org/2000/svg" version="1.1" viewBox="0 0 110 135">
  <!-- Generator: Adobe Illustrator 29.3.1, SVG Export Plug-In . SVG Version: 2.1.0 Build 151)  -->
  <path d="M99.4,66.5l-15.2-15.2c-1.2-1.2-3.4-.4-3.4,1.4v8.4h-19.2v-19.2h8.4c1.8,0,2.6-2.1,1.4-3.4l-15.2-15.2c-.8-.8-2-.8-2.8,0l-15.2,15.2c-1.2,1.2-.4,3.4,1.4,3.4h8.4v19.2h-19.2v-8.5c0-1.8-2.1-2.6-3.4-1.4l-15.2,15.2c-.8.8-.8,2,0,2.8l15.2,15.2c1.2,1.2,3.4.4,3.4-1.4v-8.5h19.1v19.1h-8.5c-1.8,0-2.6,2.1-1.4,3.4l15.2,15.2c.8.8,2,.8,2.8,0l15.2-15.2c1.2-1.2.4-3.4-1.4-3.4h-8.5v-19.1h19.2v8.4c0,1.8,2.1,2.6,3.4,1.4l15.2-15.2c.8-.8.8-2,0-2.8h0Z"/>
</svg>