<?xml version="1.0" encoding="UTF-8"?>
<svg id="Layer_1" xmlns="http://www.w3.org/2000/svg" xmlns:xlink="http://www.w3.org/1999/xlink" version="1.1" viewBox="0 0 100 79.8">
  <!-- Generator: Adobe Illustrator 29.3.1, SVG Export Plug-In . SVG Version: 2.1.0 Build 151)  -->
  <path d="M79.6,63.2l-10.2-9.8c-.2-.2-.3-.3-.5-.4,8.2-10.8,7.3-26.2-2.5-36-10.8-10.8-28.2-10.8-39,0-10.8,10.8-10.8,28.2,0,39,9.8,9.8,25.3,10.7,36,2.5,0,.2.3.4.4.5l10.2,9.8c1.5,1.5,4,1.5,5.6,0,1.5-1.5,1.5-4,0-5.6ZM32.6,50.7c-7.9-7.9-7.9-20.7,0-28.6,7.9-7.9,20.7-7.9,28.6,0,7.9,7.9,7.9,20.7,0,28.6-7.9,7.9-20.7,8-28.6,0Z"/>
</svg>