<?xml version="1.0" encoding="UTF-8"?>
<svg id="Layer_1" xmlns="http://www.w3.org/2000/svg" version="1.1" viewBox="0 0 100 125">
  <!-- Generator: Adobe Illustrator 29.3.1, SVG Export Plug-In . SVG Version: 2.1.0 Build 151)  -->
  <path d="M50,15.4h0C23.8,15.4,2.5,36.7,2.5,62.9h0c0,26.2,21.3,47.5,47.5,47.5h0c26.2,0,47.5-21.3,47.5-47.5h0c0-26.2-21.3-47.5-47.5-47.5ZM73.3,67.1l-18,18c-2.2,2.2-5.8,2.2-8,0s-2.2-5.8,0-8h0l8.7-8.6h-25.4c-3.1,0-5.6-2.5-5.6-5.6,0-3.1,2.5-5.6,5.6-5.6h25.2l-8.5-8.5c-2.2-2.2-2.2-5.8,0-8s5.8-2.2,8,0l18,18c1.1,1.1,1.7,2.6,1.6,4.2v.2c0,1.5-.6,2.9-1.7,4Z"/>
</svg>