<?xml version="1.0" encoding="UTF-8"?>
<svg id="Layer_1" xmlns="http://www.w3.org/2000/svg" version="1.1" viewBox="0 0 110 135">
  <!-- Generator: Adobe Illustrator 29.3.1, SVG Export Plug-In . SVG Version: 2.1.0 Build 151)  -->
  <defs>
    <style>
      .st0 {
        fill-rule: evenodd;
      }
    </style>
  </defs>
  <path class="st0" d="M80.8,47.1c1.9,2.5,3.5,5.2,4.7,8.1.6,1.5,0,3.3-1.3,4.1-2.9,1.9-4.7,5-4.7,8.5s1.8,6.6,4.7,8.5c1.4.9,1.9,2.6,1.3,4.1-1.2,2.9-2.8,5.7-4.7,8.1-1,1.3-2.8,1.7-4.2.9-3.1-1.6-6.7-1.5-9.7.2-3,1.7-4.9,4.9-5,8.3,0,1.6-1.3,3-2.9,3.2-1.6.2-3.1.3-4.7.3s-3.1-.1-4.7-.3c-1.6-.2-2.9-1.6-2.9-3.2-.1-3.4-2-6.6-5-8.3-3-1.7-6.6-1.8-9.7-.2-1.5.8-3.2.4-4.2-.9-1.9-2.5-3.5-5.2-4.7-8.1-.6-1.5,0-3.3,1.3-4.1,2.9-1.9,4.7-5,4.7-8.5s-1.8-6.6-4.7-8.5c-1.4-.9-1.9-2.6-1.3-4.1,1.2-2.9,2.8-5.7,4.7-8.1,1-1.3,2.8-1.7,4.2-.9,3.1,1.6,6.7,1.5,9.7-.2,3-1.7,4.9-4.8,5-8.3,0-1.6,1.3-3,2.9-3.2,1.6-.2,3.1-.3,4.7-.3s3.1.1,4.7.3c1.6.2,2.9,1.6,2.9,3.2.1,3.4,2,6.6,5,8.3,3,1.7,6.6,1.8,9.7.2,1.5-.8,3.2-.4,4.2.9ZM54.2,56c6.6,0,11.9,5.3,11.9,11.9s-5.3,11.9-11.9,11.9-11.9-5.3-11.9-11.9,5.3-11.9,11.9-11.9Z"/>
</svg>