<?xml version="1.0" encoding="UTF-8"?>
<svg id="Layer_1" xmlns="http://www.w3.org/2000/svg" version="1.1" viewBox="0 0 110 135">
  <!-- Generator: Adobe Illustrator 29.3.1, SVG Export Plug-In . SVG Version: 2.1.0 Build 151)  -->
  <defs>
    <style>
      .st0 {
        fill: #ef6163;
        fill-rule: evenodd;
      }
    </style>
  </defs>
  <path class="st0" d="M96.4,22.4H14.6c-2.3,0-4.2,1.9-4.2,4.2v81.8c0,2.3,1.9,4.2,4.2,4.2h81.8c2.3,0,4.2-1.9,4.2-4.2V26.6c0-2.3-1.9-4.2-4.2-4.2ZM79,38.2c4.5,4.5,5.1,11.5.6,16l-28.5,28.5c-.5.5-1.1.8-1.7.8l-15,2.6c-1.9.3-3.7-1.4-3.3-3.4l2.6-15.1c0-.6.4-1.1.8-1.6h0l28.5-28.5c4.6-4.5,11.5-4,16,.6h0ZM46.7,78.2l-9.2,1.6,1.6-9.2c3.2,1.1,6.5,4.4,7.6,7.6h0ZM42.8,66l24.3-24.3c4.9-4.9,13.3,3.6,8.5,8.5l-24.3,24.3c-1.8-3.5-4.9-6.7-8.5-8.5ZM25.4,100.5c-3.8,0-3.8-5.8,0-5.8h60.3c3.8,0,3.8,5.8,0,5.8H25.4Z"/>
</svg>