<?xml version="1.0" encoding="UTF-8"?>
<svg id="Layer_1" xmlns="http://www.w3.org/2000/svg" version="1.1" viewBox="0 0 100 125">
  <!-- Generator: Adobe Illustrator 29.3.1, SVG Export Plug-In . SVG Version: 2.1.0 Build 151)  -->
  <defs>
    <style>
      .st0 {
        fill-rule: evenodd;
        stroke: #000;
        stroke-miterlimit: 10;
      }
    </style>
  </defs>
  <path class="st0" d="M50,87c20.4,0,37-16.6,37-37S70.4,13,50,13,13,29.6,13,50s16.6,37,37,37ZM50,95c24.9,0,45-20.1,45-45S74.9,5,50,5,5,25.1,5,50s20.1,45,45,45ZM50,32c-3.6,0-6.5,2.9-6.5,6.5s-1.8,4-4,4-4-1.8-4-4c0-8,6.5-14.5,14.5-14.5s14.5,6.5,14.5,14.5-.9,6-2.5,8.1c-1.3,1.6-3,2.7-4.1,3.5-.2.1-.3.2-.4.3-1.2.8-1.9,1.4-2.4,2.3-.5.9-1.1,2.4-1.1,5.3s-1.8,4-4,4-4-1.8-4-4c0-4,.8-7,2.2-9.4,1.4-2.4,3.4-3.8,4.8-4.8.2-.1.4-.2.5-.4h0c1.2-.8,1.8-1.2,2.2-1.8.3-.4.8-1.2.8-3.1,0-3.6-2.9-6.5-6.5-6.5ZM50,76c2.8,0,5-2.2,5-5s-2.2-5-5-5-5,2.2-5,5,2.2,5,5,5Z"/>
</svg>