<?xml version="1.0" encoding="UTF-8"?>
<svg id="Layer_1" xmlns="http://www.w3.org/2000/svg" version="1.1" viewBox="0 0 110 135">
  <!-- Generator: Adobe Illustrator 29.3.1, SVG Export Plug-In . SVG Version: 2.1.0 Build 151)  -->
  <defs>
    <style>
      .st0 {
        fill-rule: evenodd;
      }
    </style>
  </defs>
  <path class="st0" d="M55,26.3c-23,0-41.7,18.7-41.7,41.7s18.7,41.7,41.7,41.7,41.7-18.7,41.7-41.7-18.7-41.7-41.7-41.7ZM81.5,88.1c-6-7.2-20.4-9.7-26.5-9.7s-20.5,2.5-26.5,9.7c-4.2-5.6-6.8-12.5-6.8-20.1,0-18.4,15-33.3,33.3-33.3s33.3,15,33.3,33.3-2.6,14.5-6.8,20.1ZM40.4,57.5c0-8.1,6.5-14.6,14.6-14.6s14.6,6.5,14.6,14.6-6.5,14.6-14.6,14.6-14.6-6.5-14.6-14.6Z"/>
</svg>