<?xml version="1.0" encoding="UTF-8"?>
<svg id="Layer_1" xmlns="http://www.w3.org/2000/svg" version="1.1" viewBox="0 0 24 30">
  <!-- Generator: Adobe Illustrator 29.3.1, SVG Export Plug-In . SVG Version: 2.1.0 Build 151)  -->
  <path d="M5,22c.9,0,1.7-.3,2.4-.8.7-.5,1.2-1.3,1.4-2.2h6.3c.2.8.6,1.5,1.2,2,.6.5,1.3.9,2.1,1,.8.1,1.6,0,2.3-.4s1.3-.9,1.7-1.6c.4-.7.6-1.5.5-2.3,0-.8-.4-1.6-.9-2.2-.5-.6-1.2-1.1-1.9-1.4-.8-.2-1.6-.3-2.4,0l-3.1-5.3c.6-.6.9-1.3,1.1-2,.2-.8,0-1.6-.2-2.3-.3-.7-.8-1.4-1.5-1.8-.7-.4-1.4-.7-2.2-.7s-1.6.2-2.2.7c-.7.4-1.2,1.1-1.5,1.8-.3.7-.4,1.5-.2,2.3.2.8.5,1.5,1.1,2l-3.1,5.3c-.3-.1-.7-.2-1.1-.2-1.1,0-2.1.4-2.8,1.2-.8.8-1.2,1.8-1.2,2.8s.4,2.1,1.2,2.8c.8.8,1.8,1.2,2.8,1.2ZM19,16c.4,0,.8.1,1.1.3.3.2.6.5.7.9.2.4.2.8.1,1.2,0,.4-.3.7-.5,1-.3.3-.6.5-1,.5-.4,0-.8,0-1.2-.1-.4-.2-.7-.4-.9-.7-.2-.3-.3-.7-.3-1.1s.2-1,.6-1.4c.4-.4.9-.6,1.4-.6ZM12,4c.4,0,.8.1,1.1.3.3.2.6.5.7.9.2.4.2.8.1,1.2,0,.4-.3.7-.5,1-.3.3-.6.5-1,.5-.4,0-.8,0-1.2-.1-.4-.2-.7-.4-.9-.7-.2-.3-.3-.7-.3-1.1s.2-1,.6-1.4c.4-.4.9-.6,1.4-.6ZM10.9,9.8c.4.1.7.2,1.1.2.4,0,.7,0,1.1-.2l3.1,5.3c-.5.5-.9,1.1-1.1,1.8h-6.3c-.2-.7-.5-1.3-1-1.8l3.1-5.3ZM5,16c.4,0,.8.1,1.1.3.3.2.6.5.7.9.2.4.2.8.1,1.2,0,.4-.3.7-.5,1-.3.3-.6.5-1,.5-.4,0-.8,0-1.2-.1-.4-.2-.7-.4-.9-.7s-.3-.7-.3-1.1.2-1,.6-1.4c.4-.4.9-.6,1.4-.6Z"/>
</svg>