<?xml version="1.0" encoding="UTF-8"?>
<svg id="Layer_1" xmlns="http://www.w3.org/2000/svg" version="1.1" viewBox="0 0 110 135">
  <!-- Generator: Adobe Illustrator 29.3.1, SVG Export Plug-In . SVG Version: 2.1.0 Build 151)  -->
  <path d="M60.6,38.9h-11.2c-3.6,0-6.6,2.9-6.6,6.6v1.8h-9c-1.4,0-2.5,1.1-2.5,2.5s1.1,2.5,2.5,2.5h2l2.5,31.7c.4,4.7,4.4,8.5,9.2,8.5h14.9c4.8,0,8.8-3.7,9.2-8.5l2.5-31.7h2c1.4,0,2.5-1.1,2.5-2.5s-1.1-2.5-2.5-2.5h-9v-1.8c0-3.6-2.9-6.6-6.6-6.6h0ZM47.8,45.5c0-.9.7-1.6,1.6-1.6h11.2c.9,0,1.6.7,1.6,1.6v1.8h-14.3v-1.8h0ZM66.6,83.6c-.2,2.2-2,3.9-4.2,3.9h-14.9c-2.2,0-4-1.7-4.2-3.9l-2.5-31.3h28.3l-2.5,31.3h0Z"/>
</svg>